<?xml version="1.0" standalone="no"?>
<!DOCTYPE svg PUBLIC "-//W3C//DTD SVG 20010904//EN"
 "http://www.w3.org/TR/2001/REC-SVG-20010904/DTD/svg10.dtd">
<svg version="1.0" xmlns="http://www.w3.org/2000/svg"
 width="658.000000pt" height="658.000000pt" viewBox="0 0 658.000000 658.000000"
 preserveAspectRatio="xMidYMid meet">
<metadata>
Created by potrace 1.14, written by Peter Selinger 2001-2017
</metadata>
<g transform="translate(0.000000,658.000000) scale(0.100000,-0.100000)"
fill="#000000" stroke="none">
<path d="M3140 6516 c-212 -92 -2557 -1105 -2822 -1219 l-98 -42 0 -440 0
-441 132 -56 c73 -32 243 -105 378 -163 135 -59 324 -140 420 -182 137 -59
598 -258 1081 -467 19 -8 50 -21 69 -29 19 -8 55 -24 80 -35 25 -11 79 -34
120 -52 41 -18 93 -40 115 -50 152 -68 677 -290 685 -290 5 0 38 13 72 29 35
15 124 54 198 86 74 32 153 66 175 76 22 10 126 54 230 99 105 44 204 87 220
95 17 7 163 70 325 140 162 69 313 135 335 144 22 10 272 118 555 240 283 122
538 232 565 245 28 12 128 56 223 96 l172 73 0 441 0 441 -282 122 c-156 66
-551 237 -878 378 -695 300 -1384 598 -1693 731 -119 52 -221 94 -225 94 -4
-1 -72 -29 -152 -64z"/>
<path d="M222 3794 l3 -437 155 -67 c85 -37 268 -115 405 -175 327 -141 499
-215 725 -313 102 -44 500 -216 885 -382 385 -166 745 -321 799 -345 72 -31
105 -41 120 -35 31 12 523 224 579 249 121 55 138 62 161 71 23 8 510 218 571
245 17 7 199 86 405 175 206 88 393 169 415 179 22 10 101 44 175 76 74 31
158 67 185 80 28 12 127 55 220 95 94 40 175 75 180 78 6 4 15 7 20 8 6 1 40
16 78 33 l67 31 0 435 c0 241 -4 435 -9 435 -8 0 -49 -17 -146 -60 -22 -10
-189 -82 -370 -160 -182 -78 -348 -150 -370 -160 -22 -10 -68 -30 -102 -44
-35 -14 -86 -37 -115 -50 -54 -24 -525 -227 -1108 -478 -179 -76 -347 -149
-375 -162 -27 -12 -147 -64 -265 -115 l-216 -93 -119 52 c-66 29 -133 58 -150
65 -384 166 -643 279 -680 295 -22 10 -67 29 -100 43 -70 29 -426 182 -470
202 -37 17 -401 174 -814 352 -173 74 -407 175 -520 224 -112 49 -208 89 -213
89 -5 0 -7 -196 -6 -436z"/>
<path d="M220 2781 l0 -438 153 -65 c396 -171 536 -232 585 -254 29 -13 55
-24 58 -24 3 0 26 -10 52 -21 26 -12 112 -50 192 -84 80 -35 298 -129 485
-210 187 -81 385 -166 440 -190 160 -68 848 -365 870 -375 119 -56 228 -98
247 -95 18 2 555 230 733 310 17 8 163 71 325 140 162 70 378 163 480 207 102
44 316 136 475 205 160 69 308 133 330 143 22 10 69 30 105 45 70 29 131 56
195 85 22 10 127 55 233 100 l192 82 0 439 0 439 -22 -9 c-30 -12 -171 -73
-228 -99 -25 -11 -121 -52 -215 -92 -93 -40 -192 -83 -220 -95 -27 -12 -160
-70 -295 -128 -135 -58 -398 -171 -585 -252 -187 -81 -450 -194 -585 -252
-135 -58 -270 -116 -300 -130 -30 -14 -64 -28 -75 -33 -11 -4 -46 -20 -78 -34
-32 -14 -60 -26 -62 -26 -2 0 -33 -13 -67 -29 -35 -15 -119 -52 -188 -81 -69
-29 -130 -57 -136 -61 -6 -5 -75 19 -170 60 -87 38 -292 126 -454 196 -162 70
-362 156 -445 192 -82 35 -163 71 -179 79 -16 8 -33 14 -37 14 -4 0 -36 13
-71 29 -35 16 -117 52 -183 80 -66 29 -149 65 -185 81 -36 16 -281 122 -545
235 -264 114 -547 236 -630 272 -82 36 -160 69 -172 74 l-23 9 0 -439z"/>
<path d="M222 1764 l3 -438 330 -142 c182 -79 346 -149 365 -158 19 -8 76 -32
125 -54 50 -22 171 -74 270 -117 304 -131 547 -236 603 -261 29 -13 55 -24 57
-24 2 0 34 -13 70 -30 36 -16 68 -30 70 -30 2 0 28 -11 57 -24 29 -13 170 -74
313 -136 395 -170 621 -268 715 -309 47 -21 92 -37 100 -35 8 1 83 31 165 67
83 36 318 137 523 226 206 89 395 170 420 182 26 11 56 24 67 29 11 4 36 15
55 23 67 29 338 146 850 367 463 200 653 282 790 342 25 10 79 34 120 52 l75
32 3 437 c1 240 0 437 -3 437 -7 0 -111 -43 -183 -76 -29 -13 -80 -35 -115
-50 -34 -14 -76 -32 -93 -39 -16 -8 -99 -44 -184 -80 -85 -36 -168 -72 -184
-80 -17 -7 -96 -42 -176 -76 -80 -34 -173 -74 -208 -90 -35 -16 -65 -29 -67
-29 -3 0 -28 -11 -57 -24 -29 -13 -82 -36 -118 -51 -36 -15 -85 -36 -110 -47
-25 -11 -58 -26 -75 -33 -124 -53 -322 -139 -370 -160 -16 -7 -131 -57 -255
-110 -124 -53 -324 -140 -445 -192 -121 -52 -263 -113 -315 -136 -52 -22 -99
-44 -103 -48 -5 -3 -25 2 -45 11 -20 10 -221 98 -447 195 -225 97 -477 206
-560 242 -82 36 -294 127 -470 203 -644 277 -907 391 -1215 525 -173 75 -323
139 -333 142 -16 5 -17 -18 -15 -433z"/>
</g>
</svg>
